<svg width="1440" height="960" viewBox="0 0 1440 960" fill="none" xmlns="http://www.w3.org/2000/svg">
  <rect width="1440" height="960" fill="#F3F6FB"/>
  <rect x="24" y="24" width="1392" height="64" rx="16" fill="#FFFFFF" stroke="#D8E0EC"/>
  <text x="48" y="63" font-family="Arial, sans-serif" font-size="28" font-weight="700" fill="#1F2937">십자말 레벨디자인 프로그램</text>
  <text x="1130" y="63" font-family="Arial, sans-serif" font-size="18" fill="#64748B">사전 버전: v0001</text>

  <rect x="24" y="112" width="340" height="824" rx="20" fill="#FFFFFF" stroke="#D8E0EC"/>
  <text x="48" y="152" font-family="Arial, sans-serif" font-size="24" font-weight="700" fill="#111827">1. 스테이지 설정</text>

  <text x="48" y="198" font-family="Arial, sans-serif" font-size="16" font-weight="700" fill="#334155">스테이지 번호</text>
  <rect x="48" y="210" width="128" height="44" rx="10" fill="#F8FAFC" stroke="#CBD5E1"/>
  <text x="66" y="238" font-family="Arial, sans-serif" font-size="18" fill="#111827">025</text>

  <text x="200" y="198" font-family="Arial, sans-serif" font-size="16" font-weight="700" fill="#334155">기본 Seed</text>
  <rect x="200" y="210" width="116" height="44" rx="10" fill="#F8FAFC" stroke="#CBD5E1"/>
  <text x="218" y="238" font-family="Arial, sans-serif" font-size="18" fill="#111827">2501</text>

  <text x="48" y="288" font-family="Arial, sans-serif" font-size="16" font-weight="700" fill="#334155">보드 크기</text>
  <rect x="48" y="300" width="268" height="44" rx="10" fill="#F8FAFC" stroke="#CBD5E1"/>
  <text x="66" y="328" font-family="Arial, sans-serif" font-size="18" fill="#111827">10 x 10</text>

  <text x="48" y="378" font-family="Arial, sans-serif" font-size="16" font-weight="700" fill="#334155">플레이 단어 수</text>
  <rect x="48" y="390" width="268" height="44" rx="10" fill="#F8FAFC" stroke="#CBD5E1"/>
  <text x="66" y="418" font-family="Arial, sans-serif" font-size="18" fill="#111827">9 ~ 10</text>

  <text x="48" y="468" font-family="Arial, sans-serif" font-size="16" font-weight="700" fill="#334155">사용 카테고리</text>
  <rect x="48" y="486" width="268" height="188" rx="14" fill="#F8FAFC" stroke="#CBD5E1"/>
  <rect x="64" y="506" width="18" height="18" rx="4" fill="#2563EB"/>
  <text x="94" y="520" font-family="Arial, sans-serif" font-size="17" fill="#111827">일상</text>
  <rect x="64" y="540" width="18" height="18" rx="4" fill="#2563EB"/>
  <text x="94" y="554" font-family="Arial, sans-serif" font-size="17" fill="#111827">과학</text>
  <rect x="64" y="574" width="18" height="18" rx="4" fill="#2563EB"/>
  <text x="94" y="588" font-family="Arial, sans-serif" font-size="17" fill="#111827">경제</text>
  <rect x="64" y="608" width="18" height="18" rx="4" fill="#E2E8F0" stroke="#CBD5E1"/>
  <text x="94" y="622" font-family="Arial, sans-serif" font-size="17" fill="#111827">지리</text>
  <rect x="64" y="642" width="18" height="18" rx="4" fill="#2563EB"/>
  <text x="94" y="656" font-family="Arial, sans-serif" font-size="17" fill="#111827">고사성어(1개 필수)</text>

  <text x="48" y="716" font-family="Arial, sans-serif" font-size="16" font-weight="700" fill="#334155">난이도 목표</text>
  <rect x="48" y="728" width="268" height="44" rx="10" fill="#F8FAFC" stroke="#CBD5E1"/>
  <text x="66" y="756" font-family="Arial, sans-serif" font-size="18" fill="#111827">등급 1 ~ 2 중심, 최대 3</text>

  <rect x="48" y="804" width="124" height="48" rx="12" fill="#2563EB"/>
  <text x="78" y="834" font-family="Arial, sans-serif" font-size="18" font-weight="700" fill="#FFFFFF">추천하기</text>
  <rect x="192" y="804" width="124" height="48" rx="12" fill="#0F172A"/>
  <text x="212" y="834" font-family="Arial, sans-serif" font-size="18" font-weight="700" fill="#FFFFFF">다시 추천</text>
  <rect x="48" y="870" width="268" height="48" rx="12" fill="#16A34A"/>
  <text x="135" y="900" font-family="Arial, sans-serif" font-size="18" font-weight="700" fill="#FFFFFF">stage.xml 저장</text>

  <rect x="388" y="112" width="628" height="824" rx="20" fill="#FFFFFF" stroke="#D8E0EC"/>
  <text x="412" y="152" font-family="Arial, sans-serif" font-size="24" font-weight="700" fill="#111827">2. 필수 단어 추천 결과</text>
  <text x="412" y="182" font-family="Arial, sans-serif" font-size="16" fill="#64748B">필수 단어 4개를 2개 그룹으로 제안하고, 필요하면 일부만 교체합니다.</text>

  <rect x="412" y="214" width="580" height="290" rx="18" fill="#F8FAFC" stroke="#CBD5E1"/>
  <text x="436" y="248" font-family="Arial, sans-serif" font-size="20" font-weight="700" fill="#1D4ED8">그룹 A</text>
  <text x="540" y="248" font-family="Arial, sans-serif" font-size="15" fill="#64748B">공유 글자: 타</text>
  <rect x="436" y="268" width="532" height="94" rx="14" fill="#FFFFFF" stroke="#D8E0EC"/>
  <text x="456" y="302" font-family="Arial, sans-serif" font-size="26" font-weight="700" fill="#111827">타산지석</text>
  <text x="456" y="328" font-family="Arial, sans-serif" font-size="15" fill="#475569">고사성어 · 등급 3 · 다른 사람의 잘못도 자신의 거울로 삼음.</text>
  <rect x="842" y="284" width="54" height="28" rx="8" fill="#DBEAFE"/>
  <text x="855" y="303" font-family="Arial, sans-serif" font-size="14" font-weight="700" fill="#1D4ED8">고정</text>
  <rect x="906" y="284" width="54" height="28" rx="8" fill="#E2E8F0"/>
  <text x="919" y="303" font-family="Arial, sans-serif" font-size="14" font-weight="700" fill="#334155">교체</text>

  <rect x="436" y="378" width="532" height="94" rx="14" fill="#FFFFFF" stroke="#D8E0EC"/>
  <text x="456" y="412" font-family="Arial, sans-serif" font-size="26" font-weight="700" fill="#111827">타임머신</text>
  <text x="456" y="438" font-family="Arial, sans-serif" font-size="15" fill="#475569">과학 · 등급 2 · 시간을 오가도록 상상한 기계.</text>
  <rect x="842" y="394" width="54" height="28" rx="8" fill="#E2E8F0"/>
  <text x="855" y="413" font-family="Arial, sans-serif" font-size="14" font-weight="700" fill="#334155">고정</text>
  <rect x="906" y="394" width="54" height="28" rx="8" fill="#E2E8F0"/>
  <text x="919" y="413" font-family="Arial, sans-serif" font-size="14" font-weight="700" fill="#334155">교체</text>

  <rect x="412" y="526" width="580" height="290" rx="18" fill="#F8FAFC" stroke="#CBD5E1"/>
  <text x="436" y="560" font-family="Arial, sans-serif" font-size="20" font-weight="700" fill="#1D4ED8">그룹 B</text>
  <text x="540" y="560" font-family="Arial, sans-serif" font-size="15" fill="#64748B">공유 글자: 스</text>
  <rect x="436" y="580" width="532" height="94" rx="14" fill="#FFFFFF" stroke="#D8E0EC"/>
  <text x="456" y="614" font-family="Arial, sans-serif" font-size="26" font-weight="700" fill="#111827">데이터</text>
  <text x="456" y="640" font-family="Arial, sans-serif" font-size="15" fill="#475569">과학 · 등급 2 · 관찰이나 계산으로 얻은 자료.</text>
  <rect x="842" y="596" width="54" height="28" rx="8" fill="#E2E8F0"/>
  <text x="855" y="615" font-family="Arial, sans-serif" font-size="14" font-weight="700" fill="#334155">고정</text>
  <rect x="906" y="596" width="54" height="28" rx="8" fill="#E2E8F0"/>
  <text x="919" y="615" font-family="Arial, sans-serif" font-size="14" font-weight="700" fill="#334155">교체</text>

  <rect x="436" y="690" width="532" height="94" rx="14" fill="#FFFFFF" stroke="#D8E0EC"/>
  <text x="456" y="724" font-family="Arial, sans-serif" font-size="26" font-weight="700" fill="#111827">스트레스</text>
  <text x="456" y="750" font-family="Arial, sans-serif" font-size="15" fill="#475569">일상 · 등급 2 · 마음이나 몸에 부담을 주는 긴장 상태.</text>
  <rect x="842" y="706" width="54" height="28" rx="8" fill="#E2E8F0"/>
  <text x="855" y="725" font-family="Arial, sans-serif" font-size="14" font-weight="700" fill="#334155">고정</text>
  <rect x="906" y="706" width="54" height="28" rx="8" fill="#E2E8F0"/>
  <text x="919" y="725" font-family="Arial, sans-serif" font-size="14" font-weight="700" fill="#334155">교체</text>

  <rect x="1040" y="112" width="376" height="824" rx="20" fill="#FFFFFF" stroke="#D8E0EC"/>
  <text x="1064" y="152" font-family="Arial, sans-serif" font-size="24" font-weight="700" fill="#111827">3. 검증 및 XML 요약</text>

  <rect x="1064" y="184" width="328" height="214" rx="16" fill="#F8FAFC" stroke="#CBD5E1"/>
  <text x="1088" y="216" font-family="Arial, sans-serif" font-size="18" font-weight="700" fill="#111827">자동 검증</text>
  <text x="1088" y="252" font-family="Arial, sans-serif" font-size="16" fill="#0F766E">• 필수 단어 4개 / 4개</text>
  <text x="1088" y="284" font-family="Arial, sans-serif" font-size="16" fill="#0F766E">• 고사성어 포함: 예</text>
  <text x="1088" y="316" font-family="Arial, sans-serif" font-size="16" fill="#0F766E">• 평균 등급: 2.25</text>
  <text x="1088" y="348" font-family="Arial, sans-serif" font-size="16" fill="#0F766E">• 예상 connector: 4~5개</text>
  <text x="1088" y="380" font-family="Arial, sans-serif" font-size="16" fill="#B45309">• 레이아웃 생성 가능성: 보통 이상</text>

  <rect x="1064" y="420" width="328" height="138" rx="16" fill="#FFF7ED" stroke="#FCD9BD"/>
  <text x="1088" y="452" font-family="Arial, sans-serif" font-size="18" font-weight="700" fill="#9A3412">경고 / 메모</text>
  <text x="1088" y="486" font-family="Arial, sans-serif" font-size="15" fill="#9A3412">• 그룹 B는 긴 단어가 있어 connector 품질이 중요함</text>
  <text x="1088" y="514" font-family="Arial, sans-serif" font-size="15" fill="#9A3412">• 필요하면 그룹 B 단어 한 개만 교체 권장</text>

  <rect x="1064" y="580" width="328" height="316" rx="16" fill="#0F172A"/>
  <text x="1088" y="612" font-family="Courier New, monospace" font-size="18" font-weight="700" fill="#E2E8F0">stage.xml 미리보기</text>
  <text x="1088" y="648" font-family="Courier New, monospace" font-size="13" fill="#BFDBFE">&lt;stage id="stage-025" level="25"&gt;</text>
  <text x="1088" y="670" font-family="Courier New, monospace" font-size="13" fill="#BFDBFE">  &lt;board rows="10" columns="10" /&gt;</text>
  <text x="1088" y="692" font-family="Courier New, monospace" font-size="13" fill="#BFDBFE">  &lt;requiredGroups&gt;</text>
  <text x="1088" y="714" font-family="Courier New, monospace" font-size="13" fill="#BFDBFE">    &lt;group id="A"&gt;...&lt;/group&gt;</text>
  <text x="1088" y="736" font-family="Courier New, monospace" font-size="13" fill="#BFDBFE">    &lt;group id="B"&gt;...&lt;/group&gt;</text>
  <text x="1088" y="758" font-family="Courier New, monospace" font-size="13" fill="#BFDBFE">  &lt;/requiredGroups&gt;</text>
  <text x="1088" y="780" font-family="Courier New, monospace" font-size="13" fill="#BFDBFE">  &lt;randomWordPolicy count="1" /&gt;</text>
  <text x="1088" y="802" font-family="Courier New, monospace" font-size="13" fill="#BFDBFE">  &lt;connectorWordPolicy min="4" max="5" /&gt;</text>
  <text x="1088" y="824" font-family="Courier New, monospace" font-size="13" fill="#BFDBFE">  &lt;difficulty min="1" max="3" /&gt;</text>
  <text x="1088" y="846" font-family="Courier New, monospace" font-size="13" fill="#BFDBFE">  &lt;seedPolicy defaultSeed="2501" /&gt;</text>
  <text x="1088" y="868" font-family="Courier New, monospace" font-size="13" fill="#BFDBFE">&lt;/stage&gt;</text>
</svg>
